<svg width="80" height="64" viewBox="0 0 80 64" fill="none" xmlns="http://www.w3.org/2000/svg">
<g clip-path="url(#clip0_1_14123)">
<path d="M47.1061 43.7477C66.9053 27.4724 78.5491 8.96731 73.1133 2.41552C67.6775 -4.13628 47.2206 3.74622 27.4214 20.0216C7.62218 36.2969 -4.02165 54.802 1.41413 61.3538C6.84991 67.9056 27.3069 60.0231 47.1061 43.7477Z" fill="#D3A674"/>
<path d="M49.0902 37.7864C35.3653 48.9864 29.5538 50.3402 24.237 43.9402C17.1891 35.4479 19.9093 30.5248 33.6342 19.2018C47.3591 7.87869 61.8259 2.95561 66.1535 8.12484C70.4812 13.2941 62.6914 26.4633 49.0902 37.7864Z" fill="#5186BC"/>
<path d="M57.7431 5.04923L67.7585 17.1108C68.0058 17.3569 67.6349 17.7261 67.3876 17.6031L50.4479 8.3723C50.2006 8.24923 49.8296 8.61846 50.0769 8.86461L62.5653 24.0031C62.8126 24.2492 63.1836 24.0031 63.0599 23.7569L57.2485 5.29538C57.1248 5.04923 57.4958 4.80307 57.7431 5.04923Z" stroke="#002A50" stroke-width="0.2006" stroke-miterlimit="10"/>
<path d="M67.2683 17.7263C67.1446 17.6033 67.1446 17.3571 67.2683 17.234L67.8865 16.7417C68.0102 16.6186 68.2575 16.6186 68.3811 16.7417C68.5047 16.8648 68.5047 17.111 68.3811 17.234L67.7629 17.7263C67.6392 17.8494 67.3919 17.8494 67.2683 17.7263Z" fill="#002A50"/>
<path d="M57.1252 5.53884C57.0016 5.41576 57.0016 5.16961 57.1252 5.04653L57.7434 4.55422C57.8671 4.43114 58.1144 4.43114 58.238 4.55422C58.3617 4.6773 58.3617 4.92345 58.238 5.04653L57.6198 5.53884C57.4961 5.66191 57.2489 5.66191 57.1252 5.53884Z" fill="#002A50"/>
<path d="M49.832 8.49538C49.7083 8.3723 49.7083 8.12615 49.832 8.00307L50.4502 7.51076C50.5739 7.38769 50.8212 7.38769 50.9448 7.51076C51.0685 7.63384 51.0685 7.88 50.9448 8.00307L50.3266 8.61846C50.2029 8.74153 49.9556 8.74153 49.832 8.49538Z" fill="#002A50"/>
<path d="M62.8149 24.2454C62.6913 24.1223 62.6913 23.8761 62.8149 23.7531L63.4331 23.2608C63.5568 23.1377 63.8041 23.1377 63.9277 23.2608C64.0514 23.3838 64.0514 23.63 63.9277 23.7531L63.3095 24.2454C63.1858 24.3685 62.9386 24.3685 62.8149 24.2454Z" fill="#002A50"/>
<path d="M17.4343 38.1558C17.558 38.2789 17.558 38.525 17.4343 38.6481L16.8161 39.1404C16.6924 39.2635 16.4451 39.2635 16.3215 39.1404C16.1978 39.0173 16.1978 38.7712 16.3215 38.6481L16.9397 38.1558C17.0634 37.9097 17.3107 37.9097 17.4343 38.1558Z" fill="#002A50"/>
<path d="M27.5774 50.3384C27.701 50.4615 27.701 50.7077 27.5774 50.8307L26.9592 51.323C26.8355 51.4461 26.5882 51.4461 26.4646 51.323C26.3409 51.2 26.3409 50.9538 26.4646 50.8307L27.0828 50.3384C27.2064 50.0923 27.4537 50.0923 27.5774 50.3384Z" fill="#002A50"/>
<path d="M34.8706 47.2622C34.9943 47.3853 34.9943 47.6315 34.8706 47.7545L34.2524 48.2468C34.1287 48.3699 33.8814 48.3699 33.7578 48.2468C33.6341 48.1238 33.6341 47.8776 33.7578 47.7545L34.376 47.2622C34.4997 47.0161 34.747 47.1392 34.8706 47.2622Z" fill="#002A50"/>
<path d="M21.762 31.5108C21.8856 31.6338 21.8856 31.88 21.762 32.0031L21.1437 32.4954C21.0201 32.6185 20.7728 32.6185 20.6491 32.4954C20.5255 32.3723 20.5255 32.1261 20.6491 32.0031L21.2674 31.5108C21.391 31.3877 21.6383 31.3877 21.762 31.5108Z" fill="#002A50"/>
<path d="M1.36206 61.295C4.20595 64.7412 11.1302 64.2489 20.0328 60.6796C25.1024 54.895 24.8551 50.7104 20.0328 44.6796C16.3234 40.2489 12.3667 39.5104 5.56608 43.3258C0.249231 51.2027 -1.48184 57.8489 1.36206 61.295Z" fill="#D6A85C"/>
<path d="M26.9561 50.7067L16.9407 38.6451C16.6934 38.399 17.0643 38.0297 17.3116 38.1528L34.2514 47.3836C34.4986 47.5067 34.8696 47.1374 34.6223 46.8913L22.0102 31.8759C21.7629 31.6297 21.392 31.8759 21.5156 32.122L27.4507 50.4605C27.5744 50.7067 27.2034 50.9528 26.9561 50.7067Z" stroke="#002A50" stroke-width="0.2006" stroke-miterlimit="10"/>
<path d="M15.9514 42.2144C16.0751 42.3375 16.0751 42.5836 15.9514 42.7067L15.3332 43.199C15.2095 43.3221 14.9622 43.3221 14.8386 43.199C14.7149 43.0759 14.7149 42.8298 14.8386 42.7067L15.4568 42.2144C15.5805 42.0913 15.8278 42.0913 15.9514 42.2144Z" fill="#002A50"/>
<path d="M22.752 50.3374C22.8756 50.4605 22.8756 50.7067 22.752 50.8297L22.1337 51.322C22.0101 51.4451 21.7628 51.4451 21.6391 51.322C21.5155 51.199 21.5155 50.9528 21.6391 50.8297L22.2574 50.3374C22.381 50.2143 22.6283 50.2143 22.752 50.3374Z" fill="#002A50"/>
<path d="M26.7087 50.4604L15.9513 42.7066C15.704 42.5835 15.5804 42.8296 15.704 42.9527L22.0101 50.5835C22.1337 50.7066 22.381 50.5835 22.2573 50.3373L17.0641 38.645" stroke="#002A50" stroke-width="0.2159" stroke-miterlimit="10"/>
</g>
<defs>
<clipPath id="clip0_1_14123">
<rect width="80" height="64" fill="white"/>
</clipPath>
</defs>
</svg>
