<svg width="77" height="75" viewBox="0 0 77 75" fill="none" xmlns="http://www.w3.org/2000/svg">
<g clip-path="url(#clip0_1_8639)">
<path d="M59.8892 65.256C64.3726 60.0058 55.2046 44.8172 39.4121 31.3313C23.6196 17.8454 7.18271 11.169 2.69936 16.4192C-1.78399 21.6694 7.38392 36.858 23.1765 50.3439C38.969 63.8298 55.4059 70.5062 59.8892 65.256Z" fill="#B87757"/>
<path d="M34.4262 30.6196C45.325 39.9049 47.2241 44.4737 42.8335 49.5818C36.9845 56.4257 32.7023 54.8437 21.7046 45.5732C10.707 36.3027 4.80227 25.2567 8.33743 21.187C11.8726 17.1172 23.5127 21.2353 34.4262 30.6196Z" fill="#BED3E5" stroke="#BED3E5" stroke-width="0.2159" stroke-miterlimit="10"/>
<path d="M7.07225 28.253L15.3193 18.5213C15.4874 18.2938 15.8286 18.5459 15.7594 18.7586L10.702 33.5732C10.6328 33.7858 10.974 34.038 11.1421 33.8105L21.4658 21.7448C21.6339 21.5173 21.3916 21.2503 21.2086 21.3789L7.3294 28.6189C7.14645 28.7474 6.90414 28.4804 7.07225 28.253Z" stroke="#002A50" stroke-width="0.2006" stroke-miterlimit="10"/>
<path d="M15.8879 18.9415C15.8039 19.0553 15.6061 19.0849 15.4924 19.0009L15.0226 18.5658C14.9089 18.4817 14.8792 18.284 14.9632 18.1702C15.0473 18.0565 15.2451 18.0268 15.3588 18.1109L15.8286 18.546C15.9423 18.63 15.972 18.8278 15.8879 18.9415Z" fill="#002A50"/>
<path d="M7.54201 28.6881C7.45796 28.8018 7.26017 28.8315 7.14644 28.7475L6.57777 28.3272C6.46404 28.2431 6.43435 28.0454 6.51841 27.9316C6.60246 27.8179 6.80024 27.7882 6.91398 27.8723L7.38375 28.3074C7.59638 28.3766 7.62606 28.5744 7.54201 28.6881Z" fill="#002A50"/>
<path d="M10.9739 34.038C10.8898 34.1517 10.692 34.1814 10.5783 34.0974L10.1085 33.6623C9.9948 33.5782 9.96512 33.3804 10.0492 33.2667C10.1332 33.1529 10.331 33.1233 10.4447 33.2073L10.9145 33.6424C11.0282 33.7265 11.0579 33.9243 10.9739 34.038Z" fill="#002A50"/>
<path d="M21.7324 21.5025C21.6484 21.6162 21.4506 21.6459 21.3369 21.5618L20.7682 21.1416C20.6545 21.0575 20.6248 20.8597 20.7088 20.746C20.7929 20.6323 20.9907 20.6026 21.1044 20.6866L21.5742 21.1217C21.7868 21.1909 21.8165 21.3887 21.7324 21.5025Z" fill="#002A50"/>
<path d="M39.1004 55.7036C39.1845 55.5899 39.3823 55.5602 39.496 55.6442L39.9658 56.0793C40.0795 56.1634 40.1092 56.3612 40.0251 56.4749C39.9411 56.5886 39.7433 56.6183 39.6296 56.5343L39.1598 56.0992C39.0461 56.0151 39.0312 55.9162 39.1004 55.7036Z" fill="#002A50"/>
<path d="M47.4466 45.9571C47.5307 45.8433 47.7285 45.8136 47.8422 45.8977L48.312 46.3328C48.4257 46.4168 48.4554 46.6146 48.3713 46.7284C48.2873 46.8421 48.0895 46.8718 47.9758 46.7877L47.506 46.3526C47.3923 46.2686 47.3626 46.0708 47.4466 45.9571Z" fill="#002A50"/>
<path d="M44.0145 40.6071C44.0986 40.4934 44.2963 40.4637 44.4101 40.5478L44.8798 40.9829C44.9936 41.0669 45.0233 41.2647 44.9392 41.3784C44.8552 41.4922 44.6574 41.5219 44.5436 41.4378L44.0739 41.0027C43.9601 40.9187 43.9304 40.7209 44.0145 40.6071Z" fill="#002A50"/>
<path d="M33.2557 53.1427C33.3398 53.0289 33.5375 52.9992 33.6513 53.0833L34.1211 53.5184C34.2348 53.6024 34.2645 53.8002 34.1804 53.914C34.0964 54.0277 33.8986 54.0574 33.7848 53.9733L33.3299 53.6371C33.2013 53.4542 33.1717 53.2564 33.2557 53.1427Z" fill="#002A50"/>
<path d="M59.9579 65.3146C62.2718 62.5405 60.9463 57.0767 56.8269 50.5154C51.5013 47.3709 48.1686 48.0733 44.0302 52.8403C40.9302 56.4402 40.9106 59.679 44.9755 64.5294C52.096 67.5056 57.6292 67.9898 59.9579 65.3146Z" fill="#D7A793"/>
<path d="M47.9164 46.3921L39.6693 56.1238C39.5012 56.3513 39.16 56.0992 39.2292 55.8865L44.2866 41.0719C44.3558 40.8593 44.0146 40.6071 43.8465 40.8346L33.5229 52.9003C33.3548 53.1278 33.5971 53.3948 33.78 53.2662L47.5603 46.0411C47.8422 45.8977 48.0845 46.1647 47.9164 46.3921Z" stroke="#002A50" stroke-width="0.2006" stroke-miterlimit="10"/>
<path d="M42.6263 56.2868C42.7104 56.1731 42.9082 56.1434 43.0219 56.2275L43.4917 56.6626C43.6054 56.7466 43.6351 56.9444 43.551 57.0581C43.467 57.1719 43.2692 57.2015 43.1555 57.1175L42.6857 56.6824C42.5868 56.6972 42.5571 56.4995 42.6263 56.2868Z" fill="#002A50"/>
<path d="M48.223 49.7842C48.307 49.6704 48.5048 49.6408 48.6186 49.7248L49.0883 50.1599C49.2021 50.244 49.2318 50.4417 49.1477 50.5555C49.0637 50.6692 48.8659 50.6989 48.7521 50.6148L48.2824 50.1797C48.1686 50.0957 48.1389 49.8979 48.223 49.7842Z" fill="#002A50"/>
<path d="M47.7483 46.6196L43.0367 56.3263C42.9675 56.539 43.1801 56.6082 43.2642 56.4944L48.51 50.3478C48.5941 50.2341 48.4655 50.0512 48.2826 50.1797L39.7386 55.9112" stroke="#002A50" stroke-width="0.2159" stroke-miterlimit="10"/>
<path d="M48.9226 29.6372L12.5091 47.5545C11.9911 47.8306 11.2195 47.5908 11.0196 46.9888C10.7659 46.4729 11.0302 45.6809 11.6312 45.4563L48.1276 27.5905C48.6456 27.3144 49.4173 27.5542 49.6172 28.1562C49.734 28.7067 49.5235 29.4126 48.9226 29.6372Z" fill="#9DBBCE"/>
<path d="M62.8076 29.2416L53.3156 33.8978C50.1157 35.5075 46.2172 34.1674 44.7987 30.8909C43.3263 27.7008 44.7888 23.6952 48.072 22.1372L57.564 17.4811C59.2056 16.7021 61.0862 17.3894 61.8494 18.9413L64.4858 24.8906C65.1951 26.5288 64.3952 28.549 62.8076 29.2416Z" fill="#9DBBCE"/>
<path d="M13.2569 46.8639L12.4631 47.2102C11.9437 47.4871 11.1699 47.2467 10.9694 46.6431C10.7151 46.1258 10.9801 45.3317 11.5828 45.1065L12.4305 44.6738C12.9499 44.3969 13.7237 44.6373 13.9241 45.241C14.1246 45.8446 13.8302 46.5007 13.2569 46.8639Z" fill="#B5C6D2"/>
<path d="M43.3328 30.2379L41.4019 31.1689L42.3402 33.2233L44.271 32.2923L43.3328 30.2379Z" fill="#B5C6D2"/>
</g>
<defs>
<clipPath id="clip0_1_8639">
<rect width="68.0606" height="64.7" fill="white" transform="translate(0 10.1016) rotate(-8.53481)"/>
</clipPath>
</defs>
</svg>
