<svg width="65" height="65" viewBox="0 0 65 65" fill="none" xmlns="http://www.w3.org/2000/svg">
<path d="M32.5 65C50.4493 65 65 50.4493 65 32.5C65 14.5507 50.4493 0 32.5 0C14.5507 0 0 14.5507 0 32.5C0 50.4493 14.5507 65 32.5 65Z" fill="#C4D4DF"/>
<path d="M32.4999 59.1946C47.243 59.1946 59.1946 47.243 59.1946 32.4999C59.1946 17.7568 47.243 5.80518 32.4999 5.80518C17.7568 5.80518 5.80518 17.7568 5.80518 32.4999C5.80518 47.243 17.7568 59.1946 32.4999 59.1946Z" fill="#A0BCC8"/>
<path opacity="0.5" d="M30.5013 62.7672H30.4537H30.2633C29.6923 62.7197 29.3116 62.2438 29.3592 61.7204C29.4068 61.1494 29.8827 60.7211 30.4061 60.8163H30.5964C31.1674 60.8639 31.5481 61.3397 31.5005 61.8631C31.4529 62.3866 31.0247 62.7672 30.5013 62.7672ZM38.3051 62.2914C37.8292 62.2914 37.401 61.9583 37.3058 61.4825C37.2106 60.959 37.5437 60.4356 38.0671 60.2929L38.2575 60.2453C38.7809 60.1501 39.3043 60.4832 39.4471 61.0066C39.5422 61.5301 39.2092 62.0535 38.6857 62.1962L38.4954 62.2438C38.4002 62.2914 38.3526 62.2914 38.3051 62.2914ZM22.6974 61.197C22.6023 61.197 22.4595 61.197 22.3644 61.1494L22.174 61.1018C21.6506 60.9115 21.3651 60.3404 21.5554 59.817C21.7458 59.2936 22.3168 59.0081 22.8402 59.1984L23.0305 59.246C23.554 59.4363 23.8395 60.0074 23.6491 60.5308C23.4588 60.9115 23.0781 61.197 22.6974 61.197ZM45.8234 59.6267C45.4427 59.6267 45.1096 59.4363 44.9193 59.0557C44.6813 58.5798 44.8717 57.9612 45.3475 57.7233L45.4903 57.6281C45.9661 57.3902 46.5847 57.5806 46.8226 58.0564C47.0606 58.5322 46.8702 59.1508 46.3944 59.3888L46.204 59.4839C46.1564 59.6267 45.9661 59.6267 45.8234 59.6267ZM15.5598 57.4854C15.3695 57.4854 15.1791 57.4378 14.9888 57.2951L14.8461 57.1999C14.4178 56.8668 14.275 56.2482 14.6081 55.82C14.9412 55.3917 15.5598 55.2489 15.9881 55.582L16.1308 55.6772C16.5591 56.0103 16.7018 56.6289 16.3687 57.0571C16.1784 57.3426 15.8929 57.4854 15.5598 57.4854ZM52.39 55.0586C52.1045 55.0586 51.8666 54.9634 51.6762 54.7255C51.2955 54.2973 51.3431 53.6787 51.7238 53.298L51.8665 53.1552C52.2472 52.7746 52.9134 52.8221 53.2941 53.2028C53.6747 53.5835 53.6272 54.2497 53.2465 54.6303L53.1037 54.7731C52.8658 54.9634 52.6279 55.0586 52.39 55.0586ZM9.70696 52.0608C9.42145 52.0608 9.13595 51.918 8.94561 51.6801L8.80286 51.5374C8.46977 51.1091 8.51735 50.4905 8.94561 50.1099C9.37387 49.7768 9.99246 49.8243 10.3731 50.2526L10.4683 50.3954C10.8014 50.8236 10.7538 51.4422 10.3256 51.8229C10.1828 51.9656 9.94488 52.0608 9.70696 52.0608ZM57.4815 48.9202C57.2911 48.9202 57.1008 48.8727 56.9581 48.7775C56.4822 48.492 56.3395 47.8734 56.625 47.3975L56.7201 47.2548C57.0056 46.779 57.6242 46.6362 58.1001 46.9217C58.5759 47.2072 58.7187 47.8258 58.4332 48.3017L58.338 48.492C58.1477 48.7299 57.8146 48.9202 57.4815 48.9202ZM5.56713 45.2563C5.18646 45.2563 4.80579 45.0183 4.66303 44.6377L4.61545 44.4949C4.37753 43.9715 4.61545 43.3529 5.13888 43.1626C5.6623 42.9246 6.23331 43.1626 6.42365 43.6384L6.51882 43.8287C6.75674 44.3522 6.51882 44.9232 5.99539 45.1611C5.85264 45.2087 5.70989 45.2563 5.56713 45.2563ZM60.7172 41.5923C60.622 41.5923 60.5269 41.5923 60.4793 41.5447C59.9559 41.4019 59.6228 40.8785 59.7655 40.3551L59.8131 40.1648C59.9559 39.6413 60.5269 39.3082 61.0503 39.451C61.5737 39.5937 61.9068 40.1648 61.7641 40.6882L61.7165 40.8309C61.5737 41.2592 61.1455 41.5923 60.7172 41.5923ZM3.37826 37.5476C2.90242 37.5476 2.47416 37.167 2.37899 36.6911L2.33141 36.5008C2.28382 35.9773 2.6645 35.4539 3.18793 35.3588C3.71135 35.2636 4.23478 35.6918 4.32995 36.2153L4.37753 36.4056C4.4727 36.929 4.09202 37.4525 3.52101 37.5476C3.47343 37.5476 3.42585 37.5476 3.37826 37.5476ZM61.8592 33.6933C61.8592 33.6933 61.8116 33.6933 61.8592 33.6933C61.2882 33.6933 60.86 33.265 60.86 32.694V32.5037V32.4085C60.86 31.8375 61.2882 31.4093 61.8592 31.4093C62.4302 31.4093 62.8585 31.8375 62.8585 32.4085V32.5513V32.7416C62.8109 33.2651 62.3827 33.6933 61.8592 33.6933ZM3.37826 29.5535C3.33068 29.5535 3.28309 29.5535 3.23551 29.5535C2.71208 29.4583 2.28382 28.9825 2.37899 28.4115L2.42658 28.2211C2.52175 27.6977 2.99759 27.317 3.5686 27.3646C4.09202 27.4598 4.4727 27.9356 4.42511 28.5066L4.37753 28.697C4.28236 29.1728 3.8541 29.5535 3.37826 29.5535ZM60.7648 25.6516C60.3365 25.6516 59.9083 25.3661 59.8131 24.9378L59.7655 24.7475C59.6228 24.2241 59.9083 23.653 60.4317 23.5103C60.9551 23.3675 61.5261 23.653 61.6689 24.1765L61.7165 24.3668C61.8592 24.8902 61.5737 25.4612 61.0027 25.604C60.9551 25.6516 60.86 25.6516 60.7648 25.6516ZM5.51955 21.8448C5.3768 21.8448 5.23404 21.7973 5.13888 21.7497C4.61545 21.5118 4.37753 20.9407 4.61545 20.4173L4.71062 20.227C4.94854 19.7036 5.51955 19.5132 6.04298 19.7036C6.5664 19.9415 6.75674 20.5125 6.5664 21.0359L6.47124 21.2262C6.2809 21.6545 5.90022 21.8448 5.51955 21.8448ZM57.6242 18.3236C57.2912 18.3236 56.9581 18.1333 56.7677 17.8478L56.6726 17.705C56.3871 17.2292 56.5298 16.6106 57.0056 16.3251C57.4815 16.0396 58.1001 16.1823 58.3856 16.6582L58.4808 16.8485C58.7663 17.3243 58.6235 17.9429 58.1477 18.2284C57.9573 18.276 57.767 18.3236 57.6242 18.3236ZM9.65937 15.0403C9.42145 15.0403 9.23112 14.9451 9.04078 14.8024C8.61252 14.4693 8.56494 13.8031 8.89803 13.3749L9.04078 13.2321C9.37387 12.8038 10.04 12.7563 10.4683 13.0894C10.8966 13.4224 10.9441 14.0886 10.6111 14.5169L10.5159 14.6596C10.2304 14.8976 9.94488 15.0403 9.65937 15.0403ZM52.5803 12.0901C52.3424 12.0901 52.1045 11.9949 51.8665 11.8046L51.7238 11.6618C51.2955 11.2812 51.2955 10.6626 51.6762 10.2343C52.0569 9.80605 52.6755 9.80605 53.1037 10.1867L53.2465 10.3295C53.6272 10.7101 53.6747 11.3287 53.2941 11.757C53.1037 11.9949 52.8658 12.0901 52.5803 12.0901ZM15.4646 9.56812C15.1316 9.56812 14.8461 9.42537 14.6557 9.13987C14.3226 8.71161 14.4178 8.04543 14.8936 7.75993L15.084 7.61717C15.5598 7.28408 16.1784 7.42684 16.4639 7.85509C16.797 8.33094 16.6543 8.94953 16.226 9.23504L16.0832 9.3302C15.8929 9.47296 15.7026 9.56812 15.4646 9.56812ZM46.0613 7.47442C45.9185 7.47442 45.7282 7.42684 45.5854 7.37925L45.4427 7.28408C44.9668 7.04616 44.7765 6.42757 45.0144 5.95173C45.2524 5.47589 45.8709 5.28555 46.3468 5.52347L46.5371 5.61864C47.013 5.85656 47.2033 6.47515 46.9654 6.95099C46.775 7.28408 46.442 7.47442 46.0613 7.47442ZM22.5547 5.85656C22.1264 5.85656 21.7458 5.61864 21.603 5.19038C21.4127 4.66695 21.6982 4.09594 22.2216 3.90561L22.4119 3.85802C22.9354 3.66769 23.5064 3.95319 23.6967 4.47662C23.887 5.00004 23.6015 5.57105 23.0781 5.76139L22.8878 5.80897C22.7926 5.80897 22.6499 5.85656 22.5547 5.85656ZM38.543 4.76212C38.4954 4.76212 38.4002 4.76212 38.3526 4.76212L38.1623 4.71454C37.6389 4.61937 37.2582 4.09594 37.401 3.52493C37.4961 3.00151 38.0196 2.62083 38.5906 2.76359L38.7809 2.81117C39.3043 2.90634 39.685 3.47735 39.5422 4.00078C39.4471 4.42903 39.0188 4.76212 38.543 4.76212ZM30.3585 4.19111C29.8351 4.19111 29.4068 3.81044 29.3592 3.23943C29.3116 2.66842 29.7399 2.19258 30.2633 2.19258H30.4537C30.9771 2.14499 31.5005 2.57325 31.5005 3.14426C31.5481 3.71527 31.1198 4.19111 30.5488 4.19111H30.3585C30.4061 4.19111 30.4061 4.19111 30.3585 4.19111Z" fill="white"/>
</svg>
