<svg width="58" height="58" viewBox="0 0 58 58" fill="none" xmlns="http://www.w3.org/2000/svg">
<g clip-path="url(#clip0_1_8665)">
<path d="M24.7 18.8L26.8 24C26.9 24.2 27.3 24.1 27.2 23.8L25.1 18.6C25 18.4 24.6 18.6 24.7 18.8Z" fill="#D2A553"/>
<path d="M17.2 0.299993L23.4 15.6C23.5 15.8 23.9 15.7 23.8 15.4L17.6 0.099993C17.5 -0.100007 17.1 -7.00355e-06 17.2 0.299993Z" fill="#D2A553"/>
<path d="M18.7 24.9L23.8 27.1C24 27.2 24.2 26.8 24 26.7L18.9 24.5C18.7 24.4 18.5 24.8 18.7 24.9Z" fill="#D2A553"/>
<path d="M0.300128 17L15.5001 23.5C15.7001 23.6 15.9001 23.2 15.7001 23.1L0.500128 16.7C0.300128 16.6 0.100128 16.9 0.300128 17Z" fill="#D2A553"/>
<path d="M18.7999 33.3L23.9999 31.2C24.1999 31.1 24.0999 30.7 23.7999 30.8L18.5999 32.9C18.3999 33 18.5999 33.4 18.7999 33.3Z" fill="#D2A553"/>
<path d="M0.300146 40.8L15.6001 34.6C15.8001 34.5 15.7001 34.1 15.4001 34.2L0.100146 40.4C-0.0998544 40.5 0.000145584 40.9 0.300146 40.8Z" fill="#D2A553"/>
<path d="M24.9003 39.3L27.1003 34.2C27.2003 34 26.8003 33.8 26.7003 34L24.5003 39.1C24.4003 39.3 24.8003 39.5 24.9003 39.3Z" fill="#D2A553"/>
<path d="M17.0001 57.7L23.5001 42.5C23.6001 42.3 23.2001 42.1 23.1001 42.3L16.6001 57.5C16.6001 57.7 16.9001 57.9 17.0001 57.7Z" fill="#D2A553"/>
<path d="M33.3001 39.2L31.2001 34C31.1001 33.8 30.7001 33.9 30.8001 34.2L32.9001 39.4C33.0001 39.6 33.4001 39.4 33.3001 39.2Z" fill="#D2A553"/>
<path d="M40.8 57.7L34.6 42.4C34.5 42.2 34.1 42.3 34.2 42.6L40.4 57.9C40.5 58.1 40.9 58 40.8 57.7Z" fill="#D2A553"/>
<path d="M39.3002 33.1L34.1002 31C33.9002 30.9 33.7002 31.3 33.9002 31.4L39.0002 33.6C39.3002 33.6 39.5002 33.2 39.3002 33.1Z" fill="#D2A553"/>
<path d="M57.7001 41L42.5001 34.5C42.3001 34.4 42.1001 34.8 42.3001 34.9L57.5001 41.4C57.7001 41.5 57.9001 41.1 57.7001 41Z" fill="#D2A553"/>
<path d="M39.2 24.7L34 26.8C33.8 26.9 33.9 27.3 34.2 27.2L39.4 25.1C39.6 25 39.4 24.6 39.2 24.7Z" fill="#D2A553"/>
<path d="M57.7 17.2L42.4 23.4C42.2 23.5 42.2999 23.9 42.5999 23.8L57.9 17.6C58.1 17.5 58 17.1 57.7 17.2Z" fill="#D2A553"/>
<path d="M33.1003 18.7L31.0003 23.9C30.9003 24.1 31.3003 24.3 31.4003 24.1L33.6003 19C33.6003 18.7 33.2003 18.5 33.1003 18.7Z" fill="#D2A553"/>
<path d="M41.0003 0.300006L34.5003 15.5C34.4003 15.7 34.8003 15.9 34.9003 15.7L41.4003 0.500006C41.5003 0.300006 41.1003 0.100006 41.0003 0.300006Z" fill="#D2A553"/>
<path d="M29.0003 6.00001L28.8003 24.3C28.8003 24.6 29.2003 24.6 29.2003 24.3L29.4003 6.00001C29.4003 5.80001 29.0003 5.80001 29.0003 6.00001Z" fill="#D2A553"/>
<path d="M12.8003 12.7L25.7003 25.8C25.9003 26 26.2003 25.7 26.0003 25.5L13.1003 12.5C12.9003 12.3 12.6003 12.6 12.8003 12.7Z" fill="#D2A553"/>
<path d="M6.0001 29L24.3001 29.2C24.6001 29.2 24.6001 28.8 24.3001 28.8L6.0001 28.6C5.8001 28.6 5.8001 29 6.0001 29Z" fill="#D2A553"/>
<path d="M12.6999 45.2L25.7999 32.3C25.9999 32.1 25.6999 31.8 25.4999 32L12.4999 45C12.2999 45.1 12.5999 45.4 12.6999 45.2Z" fill="#D2A553"/>
<path d="M29.0001 52L29.2001 33.7C29.2001 33.4 28.8001 33.4 28.8001 33.7L28.6001 52C28.6001 52.2 29.0001 52.2 29.0001 52Z" fill="#D2A553"/>
<path d="M45.2001 45.3L32.4001 32.2C32.2001 32 31.9001 32.3 32.1001 32.5L45.0001 45.5C45.1001 45.7 45.4001 45.4 45.2001 45.3Z" fill="#D2A553"/>
<path d="M52.0001 29L33.7001 28.8C33.4001 28.8 33.4001 29.2 33.7001 29.2L52.0001 29.4C52.2001 29.4 52.2001 29 52.0001 29Z" fill="#D2A553"/>
<path d="M45.3002 12.8L32.2002 25.6C32.0002 25.8 32.3002 26.1 32.5002 25.9L45.6002 13C45.7002 12.9 45.4002 12.6 45.3002 12.8Z" fill="#D2A553"/>
<path d="M28.9 52.8C42.0996 52.8 52.8 42.0996 52.8 28.9C52.8 15.7004 42.0996 5 28.9 5C15.7004 5 5 15.7004 5 28.9C5 42.0996 15.7004 52.8 28.9 52.8Z" fill="url(#paint0_linear_1_8665)"/>
</g>
<defs>
<linearGradient id="paint0_linear_1_8665" x1="10.7048" y1="56.9904" x2="50.7824" y2="-6.18233" gradientUnits="userSpaceOnUse">
<stop stop-color="#E7B85E" stop-opacity="0"/>
<stop offset="1" stop-color="#E7B85E"/>
</linearGradient>
<clipPath id="clip0_1_8665">
<rect width="58" height="58" fill="white"/>
</clipPath>
</defs>
</svg>
