<svg width="56" height="194" viewBox="0 0 56 194" fill="none" xmlns="http://www.w3.org/2000/svg">
<g clip-path="url(#clip0_1_14236)">
<path d="M5.83957 49.6255L0 194L55.6506 193.85L52.1569 50.0757L5.83957 49.6255Z" fill="#002A50"/>
<path d="M56.0305 43.8311L1.42798 43.3186L1.36909 49.6219L55.9716 50.1343L56.0305 43.8311Z" fill="#002A50"/>
<path d="M12.1782 43.4224L12.4777 11.2058L27.451 4.85254H30.9946L46.1176 11.9062L45.8182 43.7226L12.1782 43.4224Z" fill="#EDEEF0"/>
<path d="M12.5071 11.3992L12.2837 35.3115L45.9236 35.6272L46.147 11.7149L12.5071 11.3992Z" fill="#EDEDED"/>
<path d="M27.4509 4.8525V0L30.795 0.0500258L30.745 4.8525H27.9999" fill="#002A50"/>
<path opacity="0.94" d="M53.0055 86.2944L4.34236 85.7942L3.04468 118.661L53.854 119.161L53.0055 86.2944Z" fill="#F7F7F8"/>
<path d="M50.0107 43.7725C50.0107 43.7725 49.9608 43.5724 49.9608 43.2222C49.9608 42.822 49.9608 42.3218 49.9109 41.6714C49.9109 40.2707 49.9109 38.3697 49.9109 35.9685L50.0606 36.1186C44.8199 36.1186 37.2335 36.0685 28.7486 36.0185C20.3137 35.9185 12.6773 35.8184 7.4367 35.7184L7.58644 35.5683C7.53653 37.9195 7.48661 39.8705 7.4367 41.2712C7.4367 41.8715 7.38679 42.4218 7.38679 42.822C7.38679 43.1722 7.33688 43.3723 7.33688 43.3723C7.33688 43.3723 7.28697 43.1722 7.28697 42.822C7.28697 42.4218 7.28697 41.9216 7.23706 41.2712C7.23706 39.8705 7.23706 37.9695 7.23706 35.5683V35.4182H7.38679C12.6274 35.4182 20.2139 35.4682 28.6987 35.5183C37.1337 35.6183 44.77 35.7184 50.0107 35.8184H50.1604V35.9685C50.1105 38.3197 50.0606 40.2707 50.0107 41.6714C50.0107 42.2717 49.9608 42.822 49.9608 43.2222C50.0606 43.5724 50.0606 43.7725 50.0107 43.7725Z" fill="#002A50"/>
<path d="M37.8823 43.6224C37.7326 43.6224 37.6328 41.8715 37.6827 39.7704C37.6827 37.6193 37.8324 35.9185 37.9821 35.9185C38.1319 35.9185 38.2317 37.6694 38.1818 39.7704C38.1818 41.9215 38.032 43.6224 37.8823 43.6224Z" fill="#002A50"/>
<path d="M22.1604 43.4723C22.0106 43.4723 21.9108 41.7214 21.9607 39.6203C21.9607 37.4692 22.1105 35.7683 22.2602 35.7683C22.4099 35.7683 22.5098 37.5192 22.4598 39.6203C22.4099 41.7714 22.3101 43.4723 22.1604 43.4723Z" fill="#002A50"/>
<path d="M21.9607 35.4182C21.811 35.4182 21.761 30.0654 21.811 23.462C21.8609 16.8586 22.0605 11.5059 22.1603 11.5059C22.3101 11.5059 22.36 16.8586 22.3101 23.462C22.2602 30.0654 22.1104 35.4182 21.9607 35.4182Z" fill="#2D3536"/>
<path d="M35.1872 35.5183C35.0375 35.5183 34.9876 30.1655 35.0375 23.5621C35.0874 16.9587 35.2372 11.606 35.3869 11.606C35.5366 11.606 35.5865 16.9587 35.5366 23.5621C35.4368 30.1655 35.2871 35.5183 35.1872 35.5183Z" fill="#2D3536"/>
<path d="M46.0178 23.7623C46.0178 23.8123 45.5686 23.8123 44.7201 23.8624C43.7718 23.8624 42.5739 23.9124 41.1265 23.9124C38.0819 23.9624 33.8894 23.9624 29.2477 23.9624C24.606 23.9624 20.4135 23.8624 17.3689 23.8123C14.3243 23.7123 12.4277 23.5622 12.4277 23.4622C14.9233 23.4622 20.7129 23.4622 29.2477 23.5122C33.8395 23.5622 37.9821 23.6122 41.1265 23.6122C42.5739 23.6623 43.7718 23.6623 44.7201 23.7123C45.5186 23.6623 46.0178 23.7123 46.0178 23.7623Z" fill="#2D3536"/>
<path opacity="0.94" d="M1.64715 153.079L54.7024 153.579L55.501 186.596L0.299561 185.846L1.64715 153.079Z" fill="#F7F7F8"/>
<path d="M10.6789 66.2492L8.0835 66.2249L7.98909 76.3301L10.5845 76.3544L10.6789 66.2492Z" fill="#001D31"/>
<path d="M47.8639 99.1677L45.2686 99.1433L45.1741 109.249L47.7695 109.273L47.8639 99.1677Z" fill="#001D31"/>
<path d="M9.53067 132.086L6.9353 132.062L6.8409 142.167L9.43626 142.191L9.53067 132.086Z" fill="#001D31"/>
<path d="M49.8105 169.157L47.2151 169.133L47.1207 179.238L49.716 179.262L49.8105 169.157Z" fill="#001D31"/>
</g>
<defs>
<clipPath id="clip0_1_14236">
<rect width="56" height="194" fill="white"/>
</clipPath>
</defs>
</svg>
